IKResults
version=1
nRows=16
nColumns=42
inDegrees=yes

Units are S.I. units (second, meters, Newtons, ...)
Angles are in degrees.

endheader
time	pelvis_tilt	pelvis_list	pelvis_rotation	pelvis_tx	pelvis_ty	pelvis_tz	hip_flexion_r	hip_adduction_r	hip_rotation_r	knee_angle_r	knee_adduction_r	knee_angle_r_beta	ankle_angle_r	subtalar_angle_r	mtp_angle_r	hip_flexion_l	hip_adduction_l	hip_rotation_l	knee_angle_l	knee_adduction_l	knee_angle_l_beta	ankle_angle_l	subtalar_angle_l	mtp_angle_l	lumbar_extension	lumbar_bending	lumbar_rotation	arm_flex_r	arm_add_r	arm_rot_r	elbow_flex_r	pro_sup_r	wrist_flex_r	wrist_dev_r	arm_flex_l	arm_add_l	arm_rot_l	elbow_flex_l	pro_sup_l	wrist_flex_l	wrist_dev_l
      2.43000000	     -4.19892725	     -1.38389983	      2.62753241	      0.56849180	      0.96052228	      0.04694383	      7.22884711	     -2.55939326	    -14.66074058	     10.45323568	      6.47602164	      0.18244338	     10.25196725	     -9.21389319	     12.00219452	     35.01500898	     -4.07712775	     -4.81826570	     12.09639903	      5.09547410	      0.21112199	    -16.78365970	     17.75732330	     -2.67863653	    -15.13052931	     -0.04316171	     -7.11874699	     -6.84193092	    -32.28849018	     32.87002399	     97.21034841	     87.40936794	      0.00000000	      0.00000000	    -11.86707627	    -32.07394802	     83.72282605	      2.96107036	     85.63326473	      0.00000000	      0.00000000
      2.43665753	     -4.23172029	     -1.44603516	      2.66490533	      0.56848656	      0.96044138	      0.04692231	      7.25984808	     -2.49283220	    -14.69440884	     10.44646610	      6.47602164	      0.18232523	     10.28386298	     -9.21372445	     12.09096603	     35.08413216	     -4.13018905	     -4.81599662	     12.14367342	      5.09547410	      0.21194708	    -16.57426243	     17.77602150	     -2.77584532	    -15.08597835	      0.03242387	     -7.13433623	     -6.86844208	    -32.31703950	     32.90119498	     97.19736091	     87.46497308	      0.00000000	      0.00000000	    -11.86083864	    -32.05991951	     83.76554652	      2.97191211	     85.55864778	      0.00000000	      0.00000000
      2.44331507	     -4.21956772	     -1.45095289	      2.65762655	      0.56844867	      0.96044506	      0.04693311	      7.25949999	     -2.48855744	    -14.68129683	     10.46673180	      6.47602164	      0.18267893	     10.29482922	     -9.21789393	     12.16282678	     35.06896824	     -4.14659891	     -4.83317952	     12.14148013	      5.09547410	      0.21190880	    -16.42066585	     17.63741835	     -2.86097848	    -15.10050567	      0.03742942	     -7.09179035	     -6.89830133	    -32.32768631	     32.87693950	     97.21083786	     87.47429824	      0.00000000	      0.00000000	    -11.81775595	    -32.06242941	     83.85713682	      2.97408813	     85.51887484	      0.00000000	      0.00000000
      2.44997260	     -4.19741009	     -1.41508398	      2.63260411	      0.56844081	      0.96048639	      0.04702854	      7.24245945	     -2.52154989	    -14.65830306	     10.47512632	      6.47602164	      0.18282544	     10.25481562	     -9.21899107	     11.97154233	     35.02221402	     -4.14919221	     -4.94521804	     12.12727640	      5.09547410	      0.21166090	    -16.27181338	     17.68313242	     -2.88331543	    -15.13010656	     -0.01519318	     -7.03024465	     -6.96234291	    -32.28556160	     32.73436199	     97.27973905	     87.42831389	      0.00000000	      0.00000000	    -11.76380544	    -32.11433918	     84.04853172	      2.98653484	     85.41192366	      0.00000000	      0.00000000
      2.45663014	     -4.23326183	     -1.44883646	      2.63795535	      0.56841381	      0.96040686	      0.04699394	      7.29071689	     -2.48927679	    -14.65591193	     10.48832117	      6.47602164	      0.18305574	     10.28198228	     -9.21994381	     12.05152143	     35.07973556	     -4.17943956	     -4.90403078	     12.16222215	      5.09547410	      0.21227082	    -16.06182733	     17.53521021	     -2.87333556	    -15.08804605	      0.02441133	     -7.06359819	     -6.90984938	    -32.33072944	     32.85362305	     97.23459973	     87.45464413	      0.00000000	      0.00000000	    -11.81253946	    -32.06810225	     83.81053262	      2.97483779	     85.56719781	      0.00000000	      0.00000000
      2.46328767	     -4.24408452	     -1.43044808	      2.69086388	      0.56842138	      0.96038023	      0.04699473	      7.31321268	     -2.51208971	    -14.69858341	     10.55570775	      6.47602164	      0.18423186	     10.64184789	     -9.19800475	     13.23235442	     35.08567950	     -4.14307147	     -4.87507999	     12.14071937	      5.09547410	      0.21189553	    -16.07856479	     17.41862535	     -3.29265963	    -15.06363475	      0.00718942	     -7.15579271	     -6.85250322	    -32.31844649	     33.00075388	     97.08489948	     87.54628758	      0.00000000	      0.00000000	    -11.75557985	    -31.97295096	     82.77756959	      3.06378843	     86.29629284	      0.00000000	      0.00000000
      2.46994521	     -4.24307678	     -1.47980281	      2.67540107	      0.56842782	      0.96035909	      0.04706769	      7.29484923	     -2.44718561	    -14.66183676	     10.49094689	      6.47602164	      0.18310156	     10.44617190	     -9.21750234	     12.74765811	     35.09776133	     -4.22182238	     -4.92506827	     12.17979513	      5.09547410	      0.21257753	    -15.90891335	     17.46153772	     -3.30747562	    -15.06101394	      0.05752753	     -7.08733907	     -6.91642067	    -32.32608710	     32.86866939	     97.22448243	     87.45027037	      0.00000000	      0.00000000	    -11.79168746	    -32.04779156	     83.61514002	      2.98179797	     85.69380058	      0.00000000	      0.00000000
      2.47660274	     -4.13870465	     -1.45492932	      2.67437005	      0.56842145	      0.96050933	      0.04715764	      7.16716966	     -2.46082653	    -14.66134756	     10.46373461	      6.47602164	      0.18262662	     10.38832207	     -9.21827781	     12.44703878	     34.96873567	     -4.23118577	     -5.00680574	     12.18332622	      5.09547410	      0.21263916	    -15.80225983	     17.51273575	     -3.39530576	    -15.19543673	      0.01971440	     -7.04635415	     -6.96268740	    -32.28633334	     32.69855053	     97.36115288	     87.36600102	      0.00000000	      0.00000000	    -11.77392233	    -32.13257360	     83.96214516	      2.90889066	     85.54301320	      0.00000000	      0.00000000
      2.48326027	     -5.12110979	     -1.48760309	      2.44963633	      0.56961159	      0.95979412	      0.04700216	      8.21431805	     -2.47774967	    -14.45982410	     10.50818886	      6.47602164	      0.18340249	     10.37975188	     -9.21380308	     12.93796980	     35.85353599	     -4.30342129	     -5.11041264	     12.06165105	      5.09547410	      0.21051552	    -15.79082288	     17.29328505	     -3.31583320	    -13.55209189	      0.58691691	     -5.46649361	     -9.09553518	    -32.22674420	     30.29953908	     98.29413347	     87.46568435	      0.00000000	      0.00000000	     -2.11585080	    -28.05575199	     31.34101333	     40.07582536	     88.73231867	      0.00000000	      0.00000000
      2.48991781	     -5.15467535	     -1.54040847	      2.47676725	      0.56963986	      0.95970928	      0.04689391	      8.23708667	     -2.43152775	    -14.53319858	     10.47435355	      6.47602164	      0.18281196	     10.17207552	     -9.21317668	     12.18138559	     35.90921404	     -4.33962612	     -5.06723925	     12.11153370	      5.09547410	      0.21138614	    -15.56933513	     17.17792160	     -2.85291878	    -13.57687214	      0.65663851	     -5.81636058	     -8.72532266	    -32.32988587	     30.82473248	     98.22307372	     87.47779317	      0.00000000	      0.00000000	     -2.39383152	    -27.87580295	     26.73087612	     43.56487389	     88.58901740	      0.00000000	      0.00000000
      2.49657534	     -5.06322748	     -1.54980637	      2.48894727	      0.56960683	      0.95983366	      0.04693788	      8.14290996	     -2.41586321	    -14.53221298	     10.49415638	      6.47602164	      0.18315758	     10.29013636	     -9.21200819	     12.59990269	     35.81519184	     -4.36832723	     -5.10708987	     12.14787660	      5.09547410	      0.21202044	    -15.42243684	     17.19649783	     -2.94017083	    -13.73639666	      0.65542996	     -6.04618982	     -8.42383278	    -32.37279680	     31.22253141	     98.07319728	     87.52103561	      0.00000000	      0.00000000	     -2.60335027	    -27.84224074	     24.41157156	     45.32893703	     88.48052802	      0.00000000	      0.00000000
      2.50323288	     -5.11135836	     -1.51374083	      2.45681104	      0.56961309	      0.95976210	      0.04706469	      8.20581159	     -2.44985170	    -14.49715616	     10.50241407	      6.47602164	      0.18330170	     10.17578071	     -9.22024553	     12.11762104	     35.84211930	     -4.36240104	     -5.14373419	     12.13265602	      5.09547410	      0.21175479	    -15.43784214	     16.98590983	     -3.06754323	    -13.59988640	      0.60531335	     -5.63172154	     -8.90756868	    -32.25555654	     30.55320509	     98.25613626	     87.47282671	      0.00000000	      0.00000000	     -2.24644616	    -27.99245478	     28.58739247	     42.21982026	     88.65535129	      0.00000000	      0.00000000
      2.50989041	     -5.13942707	     -1.51750182	      2.43141538	      0.56964043	      0.95971887	      0.04712692	      8.23689992	     -2.44120734	    -14.46575813	     10.50035555	      6.47602164	      0.18326578	     10.19018476	     -9.22458144	     12.20890864	     35.85591312	     -4.39399836	     -5.17745103	     12.13908798	      5.09547410	      0.21186705	    -15.38715292	     16.88337340	     -3.16808605	    -13.59215904	      0.59329267	     -5.76000394	     -8.73694731	    -32.28900758	     30.83520776	     98.16045066	     87.51502856	      0.00000000	      0.00000000	     -2.38359302	    -27.93374280	     26.77826415	     43.54260668	     88.58838210	      0.00000000	      0.00000000
      2.51654795	     -5.09157721	     -1.55868188	      2.49297871	      0.56962213	      0.95974366	      0.04708819	      8.17344810	     -2.39881401	    -14.54661966	     10.48827121	      6.47602164	      0.18305487	     10.17545376	     -9.21813701	     12.11296839	     35.82512554	     -4.41478898	     -5.12427205	     12.17970793	      5.09547410	      0.21257601	    -15.28022706	     16.72380661	     -3.06330661	    -13.64860891	      0.65166932	     -5.81918465	     -8.71349479	    -32.28659973	     30.79534072	     98.21804581	     87.44780059	      0.00000000	      0.00000000	     -2.39659346	    -27.93701171	     26.55114951	     43.75476313	     88.57962910	      0.00000000	      0.00000000
      2.52320548	     -4.99762011	     -1.57605307	      2.59573315	      0.56963343	      0.95985563	      0.04707169	      8.01338980	     -2.37363206	    -14.67135245	     10.39237222	      6.47602164	      0.18138111	     10.08376427	     -9.21867940	     11.92323327	     35.73563209	     -4.39452681	     -5.02848053	     12.21034924	      5.09547410	      0.21311080	    -15.11434773	     16.63992551	     -2.83690431	    -13.80174128	      0.67474443	     -6.04311899	     -8.53374080	    -32.25688780	     30.85300830	     98.27919773	     87.32572140	      0.00000000	      0.00000000	     -2.54397883	    -27.95021222	     24.89859323	     45.16994068	     88.46350441	      0.00000000	      0.00000000
      2.52986301	     -5.03162779	     -1.56272082	      2.50196558	      0.56966252	      0.95982445	      0.04716011	      8.08115391	     -2.38285949	    -14.57221428	     10.42947847	      6.47602164	      0.18202874	     10.09805044	     -9.22284677	     11.86522277	     35.73823201	     -4.44624974	     -5.17453002	     12.22255604	      5.09547410	      0.21332385	    -15.04185145	     16.43468707	     -2.86151034	    -13.74401121	      0.64838923	     -5.93730261	     -8.56727347	    -32.29012700	     30.95894751	     98.17620037	     87.45229520	      0.00000000	      0.00000000	     -2.50891764	    -27.89538916	     24.96032652	     45.04363954	     88.49264879	      0.00000000	      0.00000000
